<svg xmlns="http://www.w3.org/2000/svg" width="1416" height="528" viewBox="0 0 708 264">
  <defs>
    <style>
      .cls-1 { fill-rule: evenodd; }
    </style>
  </defs>
  <path id="HAVINA_SOUNDS" data-name="HAVINA SOUNDS" class="cls-1" d="M121.884 150.223V21.943h-10.262v58.825H51.88V21.942H41.617v128.28H51.88V90.3h59.743v59.926h10.262zm27.677 0l11.73-21.623h94.93l11.73 21.625h12.65L208.76 19.56l-71.84 130.663h12.644zm101.53-31.153h-84.85l42.52-79.537zm4.59-97.13H243.4l71.83 130.66 71.837-130.658H374.79L315.23 133zm154.496 0H399.9v128.28h10.263V21.943zm114.72 0h-9.712v100.975L440.22 21.942h-9.53v128.28h9.712V38.62l84.482 113.8V21.942zm27.31 128.28l11.725-21.62h94.93l11.728 21.624h12.646L611.386 19.56l-71.84 130.663h12.646zm101.524-31.15h-84.85l42.514-79.535zM186.28 236.82v4.966c12.913 0 19.144-7.766 22.485-17.97l8.76-26.822c2.344-7.134 6.86-13.455 17.063-13.455v-4.97c-13 0-19.325 8.12-22.486 17.97l-8.76 26.82c-2.44 7.49-7.315 13.45-17.07 13.45zm84.526 6.14c18.6 0 32.33-14.63 32.33-32.69 0-18.152-13.73-32.782-32.33-32.782-18.513 0-32.33 14.63-32.33 32.78 0 18.062 13.816 32.692 32.33 32.692zm0-60.5c15.35 0 27.09 12.01 27.09 27.814s-11.83 27.724-27.09 27.724-27.09-11.92-27.09-27.724 11.827-27.82 27.09-27.82zm77.935 40.457a14.9 14.9 0 1 1-29.8 0v-44.34h-5.056v44.34c0 11.74 8.85 20.048 19.866 20.048a19.72 19.72 0 0 0 20.047-20.048v-44.34h-5.055v44.34zm62.765-44.34h-4.79v49.753l-36.934-49.758h-4.7v63.214h4.786v-55L411.5 242.87v-64.3zm30.612 63.214c17.61 0 30.978-14.17 30.978-31.6s-13.638-31.61-30.978-31.61h-18.69v63.22h18.693zm-.54-58.42c14.9 0 26.28 11.83 26.28 26.82s-11.29 26.73-26.28 26.73H428.48v-53.56h13.093zm35.494 53.46v4.97c12.913 0 19.144-7.763 22.485-17.97l8.76-26.82c2.346-7.133 6.86-13.454 17.065-13.454v-4.967c-13 0-19.328 8.126-22.49 17.97l-8.76 26.82c-2.44 7.49-7.312 13.45-17.07 13.45z"/>
</svg>
